inDegrees=no
num_controls=7
num_derivatives=13
num_iterations=107
num_multipliers=7
num_parameters=0
num_slacks=7
num_states=26
objective=5.392618
objective_accelerations=0.590986
objective_balance=0.041624
objective_effort=0.229173
objective_height=4.462708
objective_ligament=0.068128
solver_duration=1195.423236
status=Solve_Succeeded
success=true
DataType=double
version=3
OpenSimVersion=4.4-2022-07-23-0e9fedc
endheader
time	/jointset/ground_pelvis/pelvis_tilt/value	/jointset/ground_pelvis/pelvis_tx/value	/jointset/ground_pelvis/pelvis_ty/value	/jointset/hip_l/hip_flexion_l/value	/jointset/hip_l/hip_adduction_l/value	/jointset/hip_l/hip_rotation_l/value	/jointset/back/lumbar_extension/value	/jointset/patellofemoral_l/patellar_flexion_l/value	/jointset/knee_l/knee_flexion_l/value	/jointset/knee_l/knee_adduction_l/value	/jointset/knee_l/knee_rotation_l/value	/jointset/ankle_l/ankle_angle_l/value	/jointset/subtalar_l/subtalar_angle_l/value	/jointset/ground_pelvis/pelvis_tilt/speed	/jointset/ground_pelvis/pelvis_tx/speed	/jointset/ground_pelvis/pelvis_ty/speed	/jointset/hip_l/hip_flexion_l/speed	/jointset/hip_l/hip_adduction_l/speed	/jointset/hip_l/hip_rotation_l/speed	/jointset/back/lumbar_extension/speed	/jointset/patellofemoral_l/patellar_flexion_l/speed	/jointset/knee_l/knee_flexion_l/speed	/jointset/knee_l/knee_adduction_l/speed	/jointset/knee_l/knee_rotation_l/speed	/jointset/ankle_l/ankle_angle_l/speed	/jointset/subtalar_l/subtalar_angle_l/speed	/forceset/tau_hip_flexion_l	/forceset/tau_hip_adduction_l	/forceset/tau_hip_rotation_l	/forceset/tau_knee_flexion_l	/forceset/tau_ankle_angle_l	/forceset/tau_subtalar_angle_l	/forceset/tau_lumbar_extension	lambda_cid13_p0	lambda_cid13_p1	lambda_cid13_p2	lambda_cid13_p3	lambda_cid13_p4	lambda_cid13_p5	lambda_cid14_p0	/jointset/ground_pelvis/pelvis_tilt/accel	/jointset/ground_pelvis/pelvis_tx/accel	/jointset/ground_pelvis/pelvis_ty/accel	/jointset/hip_l/hip_flexion_l/accel	/jointset/hip_l/hip_adduction_l/accel	/jointset/hip_l/hip_rotation_l/accel	/jointset/back/lumbar_extension/accel	/jointset/patellofemoral_l/patellar_flexion_l/accel	/jointset/knee_l/knee_flexion_l/accel	/jointset/knee_l/knee_adduction_l/accel	/jointset/knee_l/knee_rotation_l/accel	/jointset/ankle_l/ankle_angle_l/accel	/jointset/subtalar_l/subtalar_angle_l/accel	gamma_cid13_p0	gamma_cid13_p1	gamma_cid13_p2	gamma_cid13_p3	gamma_cid13_p4	gamma_cid13_p5	gamma_cid14_p0
0.5	-0.2181174820079927	0.03087756491216453	0.785391040229802	0.8659297991632671	-0.4448807835616858	-0.2446438935594726	-0.2489760182346382	0.811331456447391	0.8113314564473952	-0.123841267847975	-0.1685292355137964	0.2202597257215721	0.02314485709839846	-0.4574457477299234	-0.06502844331422677	-0.4428769034922266	1.864122348650353	-0.238407186425003	0.7598212158927072	-0.1457592082700452	1.996843922102674	1.996843922102588	0.1255397455003747	-0.0421603642564095	0.7657017593375417	0.1555453381143733	-0.114086217342835	0.02949875476931002	-0.01353968615787338	-0.2280283743064298	-0.004042143135043544	0.03651789930760999	0.130510671845367	-33.55960624876376	-14.60201145124584	7.267288294896295	0.5093352131349174	-524.8517120145984	-69.80117445865088	-25.18025181274168	0.3482709481388074	0.3153908790176129	-0.4360111382684804	-0.8971222427243555	0.6635072238143177	-0.2873810492455491	0.9512690909380552	-1.326580673701076	-1.326580673701084	-0.01512803055764463	0.1238334545155519	-0.596362529793822	0.5647398928858769	-5.088606169428044e-07	-5.388337518437392e-07	2.440871066726908e-06	6.553093437818418e-08	-5.066400105227365e-07	-7.842833675470225e-07	-3.801954780431702e-07
0.51	-0.2226734528114944	0.03024312601922422	0.7809414464710422	0.8845225106885265	-0.4472324906068393	-0.237059183357483	-0.2503866162323183	0.8312304361466878	0.8312304361466883	-0.1225900614735149	-0.1689442628409039	0.2278854455407659	0.02472676820162207	-0.4536874430937906	-0.06185614575365197	-0.4469454543164555	1.854156425402227	-0.2319238003533854	0.7570202527602011	-0.1363697691910938	1.982680553986924	1.982680553986805	0.1246935303687947	-0.04084264822123639	0.7593339814456863	0.1608040331661438	-0.1178667832353733	0.03105951269478441	-0.01348328457871791	-0.2309033642111446	-0.00687070482289887	0.03649247447767009	0.1335427103222411	-34.60636972971228	-14.37169027727633	7.189448959152206	0.9221747118840296	-527.7542200051761	-69.47112145181828	-24.24650905528642	0.398700888608605	0.3186431111293611	-0.3779168313437015	-1.085920527948713	0.6420138359253564	-0.2918676518135856	0.9313746275524271	-1.501859858596931	-1.50185985860183	-0.1205427740819417	0.136570650249189	-0.673243837197224	0.5012977155182861	-4.844552390531962e-07	-4.125214352058446e-07	2.438851087385104e-06	8.81161377746471e-08	-4.862124359500963e-07	-6.88048454022047e-07	-3.668630189039364e-07
0.52	-0.227190022435188	0.02964050888519993	0.7764540392486718	0.9030076443488788	-0.4495191118838613	-0.2295055655281272	-0.2517036011769752	0.8509796531692088	0.8509796531692103	-0.1213475521542889	-0.1693459470132213	0.2354442358973777	0.02636023893620232	-0.449565511767325	-0.05866409153102305	-0.4504395962144167	1.842606775670424	-0.2253900327981724	0.7536027413652795	-0.1270365976649833	1.966891386747777	1.966891386747625	0.1238003344522604	-0.03949173329682032	0.7523158668211977	0.1658572643857399	-0.1216473491279479	0.032620270620259	-0.01342688299947754	-0.233778354115866	-0.009699266510751633	0.03646704964773057	0.1365747487990789	-35.65562538220779	-14.13985085584143	7.11013366001057	1.30467818221559	-530.71436682371	-69.19194093658545	-23.31469619789739	0.4209962862053388	0.3193422114284648	-0.3211293530149145	-1.213867539459903	0.6735835205334159	-0.4106907017286531	0.9400155803698564	-1.651740498380428	-1.651740498380428	-0.02452418754851038	0.130473232364149	-0.7264298763204259	0.5236471264510238	-4.610117349812799e-07	-2.976613313577581e-07	2.437030603158375e-06	1.096818368501578e-07	-4.697880742589708e-07	-5.954159016820724e-07	-3.545916808670343e-07
0.53	-0.2316636881451243	0.02906986522057046	0.7719345848572788	0.9213696642547575	-0.4517401209625474	-0.2219889402025146	-0.2529275615354996	0.8705630549379418	0.8705630549379818	-0.1201141960261949	-0.1697338055075065	0.2429297022919022	0.02804327460789644	-0.4451115102110021	-0.05546539207461026	-0.4533517620255075	1.82954564857148	-0.2188061807756209	0.7496195157110597	-0.1177759134486823	1.949531484459123	1.949531484459005	0.1228675115734087	-0.03808082962199514	0.7446756641275928	0.1707131528497947	-0.1252986249708563	0.03394830846539713	-0.01332679026072322	-0.2368118459488374	-0.01238635299527298	0.03637497005405814	0.1394826109506463	-36.66471235993863	-13.87911536014449	7.018235503248283	1.714928506657088	-533.6856893103181	-68.91330317141058	-22.38651339062689	0.4659646184987868	0.3200454127335043	-0.2614244215794998	-1.390032971330896	0.6513004622400022	-0.4078634541986045	0.9160289308502765	-1.816667845907735	-1.816667845902911	-0.1281214608389793	0.1467339364695451	-0.7980896395443053	0.4608057173701596	-4.354824054244645e-07	-1.828836009950962e-07	2.422597284834104e-06	1.319196120004474e-07	-4.549259231515676e-07	-4.997316104122886e-07	-3.403766241020351e-07
